<svg width="128" height="128" viewBox="0 0 128 128" fill="none" xmlns="http://www.w3.org/2000/svg">
<path d="M120.51 67.9494C120.388 66.5109 119.462 65.3297 118.094 64.8664L106.997 61.1084L117.801 48.7133C118.518 47.8906 118.818 46.8026 118.624 45.7286C118.43 44.6545 117.768 43.7403 116.809 43.2203L102.87 35.6685C101.959 35.1752 100.822 35.5132 100.328 36.4237C99.835 37.3343 100.173 38.4723 101.083 38.9655L114.83 46.4136L103.317 59.6224L66.9515 39.919L73.6993 32.1777C74.4758 32.4627 75.3143 32.6182 76.1883 32.6182C78.9021 32.6182 81.2709 31.1175 82.5116 28.9032L92.9314 34.5487C93.2154 34.7025 93.5212 34.7755 93.8229 34.7755C94.4889 34.7755 95.1337 34.42 95.4734 33.7932C95.9667 32.8827 95.6284 31.7447 94.7179 31.2515L83.4269 25.1342C83.2996 21.2504 80.1029 18.1296 76.1886 18.1296C72.1941 18.1296 68.9443 21.3794 68.9443 25.3739C68.9443 27.1327 69.5748 28.7465 70.6208 30.0027L63.9998 37.5988L52.2694 24.1414C51.1619 22.8707 49.3537 22.5439 47.8709 23.3469L43.2856 25.8312C42.7484 21.5824 39.1141 18.2849 34.7218 18.2849C29.9608 18.2849 26.0873 22.1584 26.0873 26.9197C26.0873 29.5522 27.273 31.912 29.1368 33.497L11.1907 43.2203C10.2312 43.7403 9.56969 44.6543 9.37544 45.7286C9.18169 46.8026 9.48169 47.8906 10.1989 48.7131L21.0025 61.1081L9.90519 64.8659C8.53743 65.3292 7.61168 66.5104 7.48918 67.9489C7.36668 69.3874 8.07918 70.7085 9.34869 71.3962L22.3805 78.4567V85.534C22.3805 86.5695 23.2198 87.4091 24.2555 87.4091C25.2913 87.4091 26.1305 86.5695 26.1305 85.534V80.4885L44.3626 90.3666C45.1404 90.7881 46.0082 91.0023 46.8792 91.0023C47.4487 91.0023 48.0199 90.9106 48.5679 90.7251L62.125 86.1348V123.441L26.9295 104.371C26.4368 104.104 26.1308 103.59 26.1308 103.029V94.7903C26.1308 93.7548 25.2915 92.9153 24.2558 92.9153C23.22 92.9153 22.3808 93.7548 22.3808 94.7903V103.029C22.3808 104.967 23.439 106.745 25.143 107.668L61.4867 127.36C62.2737 127.786 63.137 127.999 64.0003 127.999C64.8635 127.999 65.7268 127.786 66.5138 127.36L102.857 107.668C104.561 106.745 105.62 104.967 105.62 103.029V78.4565L118.651 71.396C119.92 70.709 120.633 69.3882 120.51 67.9494V67.9494ZM68.1448 53.4439C74.7083 55.2889 79.2924 61.3414 79.2924 68.1627C79.2924 70.0622 78.9511 71.9057 78.2766 73.6525L63.9998 81.3878L49.7229 73.6525C49.0487 71.9057 48.7072 70.0622 48.7072 68.1627C48.7072 61.3204 53.3087 55.2626 59.8977 53.4313C60.8952 53.1541 61.4792 52.1203 61.202 51.1228C60.925 50.1251 59.8907 49.5413 58.8935 49.8183C50.6882 52.0991 44.9574 59.6424 44.9574 68.1627C44.9574 69.1902 45.0406 70.2045 45.2006 71.2025L28.1915 61.9867L64.0003 42.585L99.8087 61.9869L82.7996 71.2027C82.9596 70.2047 83.0429 69.1904 83.0429 68.1629C83.0429 59.6686 77.3341 52.1316 69.16 49.8338C68.163 49.5533 67.1278 50.1348 66.8478 51.1313C66.5668 52.1283 67.1475 53.1636 68.1448 53.4439V53.4439ZM76.1883 21.8802C78.1151 21.8802 79.6828 23.4477 79.6828 25.3744C79.6828 27.3012 78.1151 28.869 76.1883 28.869C74.2616 28.869 72.6941 27.3012 72.6941 25.3744C72.6941 23.4477 74.2616 21.8802 76.1883 21.8802ZM34.7218 22.0354C37.4151 22.0354 39.6066 24.2267 39.6066 26.9202C39.6066 29.6135 37.4151 31.805 34.7218 31.805C32.0286 31.805 29.8373 29.6137 29.8373 26.9202C29.8373 24.2267 32.0286 22.0354 34.7218 22.0354ZM33.3988 35.4535C33.8303 35.5202 34.2721 35.555 34.7218 35.555C38.2164 35.555 41.2301 33.4672 42.5879 30.4747L49.5344 26.7112L61.0475 39.9195L24.682 59.6229L13.1687 46.4141L33.3988 35.4535ZM47.3649 87.1738C46.9639 87.3098 46.5204 87.2716 46.1489 87.0701L25.157 75.6967C25.1515 75.6937 25.1458 75.6907 25.1403 75.6877L11.4867 68.2902L24.0813 64.0254L59.329 83.123L47.3649 87.1738ZM101.869 103.03C101.869 103.591 101.563 104.105 101.07 104.372L65.8748 123.441V86.1355L79.4318 90.7258C79.9799 90.9113 80.5511 91.0031 81.1209 91.0031C81.9914 91.0031 82.8594 90.7886 83.6371 90.3673L101.869 80.4893V103.03H101.869ZM81.8504 87.0701C81.4789 87.2716 81.0354 87.3098 80.6344 87.1738L68.6705 83.123L103.918 64.0254L116.513 68.2902L81.8504 87.0701ZM116.892 68.4184C116.891 68.4184 116.891 68.4182 116.891 68.4182L116.892 68.4184Z" fill="#9CABCD"/>
<path d="M78.023 106.172L73.7218 108.502C72.8113 108.995 72.4733 110.133 72.9665 111.044C73.306 111.67 73.951 112.026 74.617 112.026C74.9185 112.026 75.2248 111.953 75.5085 111.799L79.8098 109.469C80.7203 108.976 81.0583 107.838 80.5651 106.927C80.0718 106.017 78.9343 105.678 78.023 106.172V106.172Z" fill="#9CABCD"/>
<path d="M41.9231 15.7899C42.2894 16.1559 42.7694 16.3392 43.2491 16.3392C43.7289 16.3392 44.2089 16.1562 44.5751 15.7899L46.1219 14.2432L47.6686 15.7899C48.0349 16.1559 48.5149 16.3392 48.9946 16.3392C49.4744 16.3392 49.9544 16.1562 50.3206 15.7899C51.0529 15.0577 51.0529 13.8704 50.3206 13.1384L48.7736 11.5914L50.3206 10.0444C51.0529 9.31219 51.0529 8.12494 50.3206 7.39294C49.5881 6.66069 48.4011 6.66069 47.6689 7.39294L46.1221 8.93969L44.5754 7.39294C43.8429 6.66069 42.6559 6.66069 41.9236 7.39294C41.1914 8.12519 41.1914 9.31244 41.9236 10.0444L43.4706 11.5914L41.9236 13.1384C41.1909 13.8704 41.1909 15.0577 41.9231 15.7899V15.7899Z" fill="#9CABCD"/>
<path d="M97.4334 28.0724C97.7997 28.4384 98.2797 28.6216 98.7594 28.6216C99.2392 28.6216 99.7192 28.4386 100.085 28.0724L101.632 26.5256L103.179 28.0724C103.545 28.4384 104.025 28.6216 104.505 28.6216C104.985 28.6216 105.465 28.4386 105.831 28.0724C106.563 27.3401 106.563 26.1529 105.831 25.4209L104.284 23.8739L105.831 22.3269C106.563 21.5947 106.563 20.4074 105.831 19.6754C105.098 18.9432 103.911 18.9432 103.179 19.6754L101.632 21.2222L100.086 19.6754C99.3532 18.9432 98.1662 18.9432 97.4339 19.6754C96.7017 20.4077 96.7017 21.5949 97.4339 22.3269L98.9809 23.8739L97.4339 25.4209C96.7012 26.1529 96.7012 27.3401 97.4334 28.0724V28.0724Z" fill="#9CABCD"/>
<path d="M87.0821 16.3377C91.5866 16.3377 95.2511 12.6732 95.2511 8.169C95.2508 3.6645 91.5863 0 87.0821 0C82.5778 0 78.9131 3.6645 78.9131 8.169C78.9131 12.6732 82.5776 16.3377 87.0821 16.3377ZM87.0821 3.75C89.5186 3.75 91.5011 5.73225 91.5011 8.169C91.5011 10.6055 89.5186 12.5878 87.0821 12.5878C84.6456 12.5878 82.6631 10.6055 82.6631 8.169C82.6631 5.73225 84.6456 3.75 87.0821 3.75V3.75Z" fill="#9CABCD"/>
<path d="M63.7881 70.1292C61.9816 70.1292 60.2766 70.7282 58.9846 71.8177C58.1931 72.4852 58.0924 73.6682 58.7601 74.4597C59.4274 75.2514 60.6104 75.3519 61.4021 74.6844C62.0096 74.1722 62.8786 73.8789 63.7884 73.8789H63.8009C64.7151 73.8817 65.5874 74.1804 66.1946 74.6987C66.5479 75.0002 66.9806 75.1474 67.4109 75.1474C67.9406 75.1474 68.4671 74.9242 68.8379 74.4897C69.5101 73.7022 69.4166 72.5184 68.6291 71.8462C67.3381 70.7442 65.6271 70.1342 63.8116 70.1287C63.8039 70.1292 63.7959 70.1292 63.7881 70.1292V70.1292Z" fill="#9CABCD"/>
<path d="M55.8553 64.5764H55.8378C54.8013 64.5611 53.966 65.4031 53.9585 66.4384C53.9515 67.4739 54.7938 68.3191 55.8293 68.3264H55.8425C56.8718 68.3264 57.71 67.4954 57.7173 66.4644C57.7245 65.4289 56.891 64.5836 55.8553 64.5764Z" fill="#9CABCD"/>
<path d="M71.7944 68.2877C71.8009 68.2889 71.8076 68.2897 71.8141 68.2909C71.8681 68.3014 71.9229 68.3102 71.9784 68.3159C71.9964 68.3177 72.0146 68.3177 72.0326 68.3189C72.0744 68.3219 72.1161 68.3259 72.1589 68.3262H72.1721C72.2366 68.3262 72.3004 68.3229 72.3634 68.3164C73.3101 68.2217 74.0491 67.4227 74.0491 66.4509C74.0491 65.4919 73.3289 64.7027 72.4001 64.5909C72.3916 64.5899 72.3834 64.5879 72.3749 64.5872C72.3321 64.5827 72.2884 64.5814 72.2446 64.5797C72.2246 64.5789 72.2051 64.5764 72.1849 64.5762H72.1751C72.1749 64.5762 72.1744 64.5762 72.1741 64.5762H72.1674H72.1564C72.1556 64.5762 72.1549 64.5762 72.1541 64.5762C71.1249 64.5762 70.2954 65.4072 70.2881 66.4382C70.2819 67.3489 70.9329 68.1119 71.7944 68.2877V68.2877Z" fill="#9CABCD"/>
</svg>
